<svg height="256" viewBox="0 0 256 256" width="256" xmlns="http://www.w3.org/2000/svg"><rect fill="#119dff" height="136.77060032454" rx="6.2168454693" stroke-width="1.03614091155" width="136.77060032454" x="59.41231590263" y="5.5642193814"/><g transform="matrix(1.03614091155 0 0 1.03614091155 -24.2975093776 -19.11665713171)"><g fill="#506784"><rect height="68.879997" rx="5.74" width="11.48" x="80.860001" y="179.82001"/><rect height="68.879997" rx="5.74" width="11.48" x="201.78999" y="179.82001"/><path d="m46.41 191.3a21.73 21.73 0 0 0 -11.91 3.56 5.74 5.74 0 0 0 -11.05 2.14v57.4a5.74 5.74 0 0 0 11.48 0v-9a21.69 21.69 0 0 0 11.48 3.3c12.68 0 23-11 23-24.6v-8.2c-.04-13.59-10.31-24.6-23-24.6zm11.48 33.4c0 6.92-5.14 12.52-11.48 12.52s-11.48-5.61-11.48-12.52v-9.4c0-6.92 5.14-12.52 11.48-12.52s11.48 5.61 11.48 12.52z"/><path d="m126.78 191.3c-12.68 0-23 11-23 24.6v8.2c0 13.59 10.28 24.6 23 24.6 12.68 0 23-11 23-24.6v-8.2c-.04-13.59-10.32-24.6-23-24.6zm11.48 33.4c0 6.92-5.14 12.52-11.48 12.52s-11.48-5.61-11.48-12.52v-9.4c0-6.92 5.14-12.52 11.48-12.52s11.48 5.61 11.48 12.52z"/><path d="m184.18 237.22a11.49 11.49 0 0 1 -11.48-11.48v-23h11.48a5.74 5.74 0 0 0 0-11.48h-11.48v-5.74a5.74 5.74 0 0 0 -11.48 0v40.18a23 23 0 0 0 23 23 5.74 5.74 0 0 0 0-11.48z"/><path d="m267.07 191.76a5.74 5.74 0 0 0 -7.54 3l-11.9 27.76-11.9-27.76a5.74 5.74 0 1 0 -10.55 4.52l16.21 37.81-1.93 4.5a11.5 11.5 0 0 1 -10.34 7.08 5.740368 5.740368 0 0 0 .13 11.48h.14a23 23 0 0 0 20.61-14.08l20.05-46.77a5.74 5.74 0 0 0 -2.98-7.54z"/></g><g><g fill="#25fefd"><circle cx="158.78999" cy="77.82" r="6"/><circle cx="182.78999" cy="53.82" r="6"/><circle cx="158.78999" cy="53.82" r="6"/><circle cx="134.78999" cy="53.82" r="6"/><circle cx="110.79" cy="53.82" r="6"/><circle cx="110.79" cy="77.82" r="6"/></g><path d="m110.79 95.82a6 6 0 0 0 -6 6v24a6 6 0 1 0 12 0v-24a6 6 0 0 0 -6-6z" fill="#fff"/><path d="m158.79 95.82a6 6 0 0 0 -6 6v24a6 6 0 1 0 12 0v-24a6 6 0 0 0 -6-6z" fill="#fff"/><path d="m134.79 71.82a6 6 0 0 0 -6 6v48a6 6 0 1 0 12 0v-48a6 6 0 0 0 -6-6z" fill="#fff"/><path d="m182.79 71.82a6 6 0 0 0 -6 6v48a6 6 0 0 0 12 0v-48a6 6 0 0 0 -6-6z" fill="#fff"/></g></g></svg>