<svg enable-background="new 0 0 64 64" height="64" viewBox="0 0 64 64" width="64" xmlns="http://www.w3.org/2000/svg" xmlns:xlink="http://www.w3.org/1999/xlink"><linearGradient id="a" gradientTransform="matrix(.9905 .1376 .1376 -.9905 -108.562 37.3777)" gradientUnits="userSpaceOnUse" x1="132.5392" x2="163.0757" y1="25.5206" y2="25.5206"><stop offset=".01" stop-color="#c7422f"/><stop offset=".37" stop-color="#d46e43"/><stop offset="1" stop-color="#eeb575"/></linearGradient><linearGradient id="b"><stop offset=".21" stop-color="#cf603b"/><stop offset="1" stop-color="#eeb575"/></linearGradient><linearGradient id="c" gradientTransform="matrix(.9905 .1376 .1376 -.9905 -108.562 37.3777)" gradientUnits="userSpaceOnUse" x1="142.0176" x2="155.7741" xlink:href="#b" y1="26.3145" y2="26.3145"/><linearGradient id="d" gradientTransform="matrix(.9905 .1376 .1376 -.9905 -108.562 37.3777)" gradientUnits="userSpaceOnUse" x1="116.0678" x2="149.8578" xlink:href="#b" y1="24.7564" y2="24.7564"/><path d="m57.5 27.2c0-.4.1-.8.1-1.3.5-7.3-1-14.6-4.3-21.2l-2.4-4.7-1.1 5.2c-2.6 12.1-10.9 22.2-22.3 27.1l-1.6.7.6 1.7c2 5.4 2.8 11.1 2.2 16.8-.3 3.1-1 6.1-2 9l-1.3 3.5 3.6-1.2c15.7-5.1 26.9-19.1 28.5-35.6zm-24.3 29.8-1.9 1 .4-2.1c.3-1.4.5-2.8.6-4.2.5-5.4 0-10.8-1.6-16l-.2-.7.8-.4c8.7-4.4 15.6-11.7 19.5-20.6l1.2-2.8.7 2.9c1 4.2 1.4 8.5.9 12.7-1.1 13-8.8 24.4-20.4 30.2z" fill="url(#a)"/><path d="m48.6 29.3c1.4-3.2 2.9-11.1 2.8-11.6-1.5 2.8-3.2 5.4-5.2 7.8-.3.8-.6 1.6-1 2.3-2.5 5.5-6.3 10.3-11 14.1.2 1.4.3 2.9.4 4.3 6.1-4.4 10.9-10.2 14-16.9z" fill="url(#c)"/><path d="m26.7 46.4c-3.4 1.6-7 2.7-10.7 3.2l-2.1.3 1.1-1.8c.7-1.2 1.3-2.5 1.9-3.7 2.2-4.9 3.5-10.2 3.7-15.6v-.9l.9-.1c6.8-.9 13.2-3.5 18.8-7.5 2.9-3.4 5.1-7.4 6.5-11.6-6.6 9.1-16.9 14.9-28.1 15.7l-1.8.1v1.8c.2 5.7-1 11.4-3.4 16.6-1.3 2.8-2.9 5.5-4.8 7.9l-2.3 3h3.8c5.7.1 11.3-1 16.5-3.2.1-1.5.1-2.8 0-4.2z" fill="url(#d)"/></svg>