<svg id="Capa_1" enable-background="new 0 0 512 512" height="512" viewBox="0 0 512 512" width="512" xmlns="http://www.w3.org/2000/svg"><g><path d="m407.465 173.322c13.464 3.571 25.878 11.631 36.515 22.566-11.749-93.376-91.417-165.61-187.98-165.61-96.563 0-176.231 72.234-187.98 165.61 10.636-10.935 23.05-18.995 36.515-22.567 19.902-64.76 80.265-111.977 151.465-111.977s131.563 47.217 151.465 111.978z" fill="#f6a96c"/><path d="m256 30.278c-96.563 0-176.231 72.234-187.98 165.61 10.223-10.511 22.09-18.36 34.953-22.125 19.359-77.601 86.536-136.263 168.434-142.855-5.083-.408-10.219-.63-15.407-.63z" fill="#ea9b58"/><g><g><path d="m167.358 293.831c0-25.613 8.56-52.47 22.628-73.898-16.219-28.069-41.536-48.655-69.986-48.655-48.956 0-88.642 60.948-88.642 116.109 0 14.557 2.766 27.69 7.735 39.138h133.502c-3.387-9.852-5.237-20.797-5.237-32.694z" fill="#fe93d3"/><g fill="#fe73c5"><path d="m38.959 244.125c10.297.281 19.854 3.498 27.882 8.834 10.386-37.526 36.486-71.267 68.48-79.673-4.977-1.308-10.096-2.007-15.321-2.007-36.155-.001-67.25 33.243-81.041 72.846z"/><path d="m34.809 284.151c-1.147.056-2.284.154-3.411.283-.025.986-.041 1.97-.041 2.953 0 14.557 2.766 27.69 7.735 39.138h30.664c-4.661-10.735-7.4-22.94-7.724-36.422-8.077-4.222-17.37-6.436-27.223-5.952z"/></g><path d="m167.358 293.831c0-14.273 2.663-28.932 7.45-42.823-4.438 2.523-8.482 5.661-12.002 9.31-1.442 1.494-3.832 1.583-5.271.085-9.66-10.057-23.241-16.318-38.287-16.318s-28.628 6.261-38.287 16.318c-1.439 1.498-3.829 1.409-5.271-.085-9.336-9.677-22.318-15.799-36.731-16.193-4.551 13.067-7.218 26.826-7.561 40.313 0-.001.001-.002.001-.003 1.127-.13 2.263-.227 3.411-.283 16.063-.789 30.656 5.568 40.881 16.167 1.442 1.494 3.832 1.583 5.271.085 9.659-10.057 23.241-16.318 38.287-16.318s28.628 6.261 38.287 16.318c1.439 1.498 3.829 1.409 5.271-.085 1.439-1.492 2.974-2.889 4.578-4.205-.017-.758-.027-1.518-.027-2.283z" fill="#62dbfb"/><path d="m31.399 284.435c1.127-.13 2.263-.227 3.411-.283 9.862-.484 19.163 1.734 27.246 5.964-.022-.907-.055-1.809-.055-2.728 0-11.426 1.706-23.1 4.841-34.429-8.028-5.336-17.586-8.552-27.882-8.834-4.551 13.068-7.218 26.826-7.561 40.313-.001-.001 0-.003 0-.003z" fill="#01d0fb"/></g><g><path d="m343.643 293.831c0 11.475-1.744 22.366-5.183 32.369l-.456 1.325h134.458c5.247-11.682 8.181-25.154 8.181-40.138 0-55.162-39.687-116.109-88.642-116.109-28.782 0-54.355 21.07-70.548 49.641 13.873 21.425 22.19 48.106 22.19 72.912z" fill="#62dbfb"/><g><path d="m344.642 293.831c0 11.897-1.85 22.842-5.237 32.695h18.337c-4.97-11.449-7.742-24.579-7.742-39.138 0-46.066 27.681-96.159 65.321-111.428-7.432-3.015-15.249-4.681-23.321-4.681-28.45 0-53.767 20.586-69.986 48.655 14.068 21.427 22.628 48.284 22.628 73.897z" fill="#01d0fb"/></g><path d="m470.176 236.585-20.298 20.824-19.29-19.951-19.294 19.951-19.293-19.951-19.293 19.951-19.292-19.951-15.421 15.946c3.225 9.924 5.362 20.201 6.22 30.42l4.583-4.739 21.602 22.339 21.602-22.339 21.602 22.339 21.603-22.339 21.599 22.339 23.409-24.05c-1.162-13.83-4.665-27.767-10.039-40.789z" fill="#fff"/></g></g><g><g><path d="m339.405 326.526c3.387-9.853 5.237-20.797 5.237-32.695 0-55.162-39.687-116.109-88.642-116.109s-88.642 60.948-88.642 116.109c0 11.897 1.85 22.842 5.237 32.695z" fill="#a2e62e"/></g><g><path d="m218.964 326.526c-3.389-9.854-5.249-20.794-5.249-32.695 0-46.124 27.751-96.285 65.464-111.486-7.389-2.978-15.158-4.623-23.179-4.623-48.956 0-88.642 60.948-88.642 116.109 0 11.897 1.85 22.842 5.237 32.695z" fill="#97d729"/></g><g><path d="m255.616 326.526 79.963-79.963c-3.543-9.276-8.035-18.141-13.312-26.242l-106.206 106.205z" fill="#fed402"/></g><g><path d="m339.405 326.526c3.387-9.853 5.237-20.797 5.237-32.695 0-2.912-.117-5.841-.334-8.775l-41.47 41.47z" fill="#fed402"/></g><g><path d="m274.993 180.817-107.502 107.502c-.086 1.842-.133 3.68-.133 5.512 0 10.768 1.519 20.754 4.317 29.859l128.551-128.551c-7.747-6.439-16.236-11.375-25.233-14.322z" fill="#fed402"/></g></g><path d="m26 357.158v.052c0 68.766 55.746 124.511 124.511 124.511h210.977c68.766.001 124.512-55.745 124.512-124.511v-.052z" fill="#f6a96c"/><g><path d="m99.523 436.519h-45c22.838 27.61 57.358 45.203 95.988 45.203h45c-38.63 0-73.15-17.593-95.988-45.203z" fill="#ea9b58"/></g><g fill="#fed2a4"><path d="m69.064 357.158h43.65v47.355h-43.65z"/><path d="m151.619 357.158h43.65v47.355h-43.65z"/><path d="m234.175 357.158h43.65v47.355h-43.65z"/><path d="m316.731 357.158h43.65v47.355h-43.65z"/><path d="m399.286 357.158h43.65v47.355h-43.65z"/></g><g><path d="m457.477 436.519c7.915-9.569 14.42-20.345 19.214-32.006h-441.381c4.793 11.661 11.298 22.436 19.214 32.006z" fill="#d88a55"/></g><g><path d="m54.523 436.519h45c-7.915-9.569-14.421-20.345-19.214-32.006h-45c4.794 11.661 11.299 22.437 19.214 32.006z" fill="#c57a44"/></g><g><path d="m499.5 357.158h-487c-2.761 0-5-2.239-5-5v-20.633c0-2.761 2.239-5 5-5h487c2.761 0 5 2.239 5 5v20.633c0 2.762-2.239 5-5 5z" fill="#ffbd86"/></g><g><path d="m53 352.158v-20.633c0-2.761 2.239-5 5-5h-45.5c-2.761 0-5 2.239-5 5v20.633c0 2.761 2.239 5 5 5h45.5c-2.761 0-5-2.238-5-5z" fill="#f6a96c"/></g><path d="m499.5 319.026h-15.854c2.959-9.83 4.497-20.421 4.497-31.639 0-28.821-9.983-59.125-27.39-83.141-3.078-4.247-6.304-8.177-9.654-11.792-13.448-97.026-96.585-169.676-195.099-169.676s-181.651 72.65-195.099 169.677c-3.35 3.614-6.576 7.545-9.654 11.792-17.407 24.016-27.39 54.32-27.39 83.141 0 11.218 1.538 21.809 4.497 31.639h-15.854c-6.893 0-12.5 5.607-12.5 12.5v20.632c0 6.893 5.607 12.5 12.5 12.5h6.214c3.876 69.339 61.506 124.563 131.797 124.563h210.978c70.291 0 127.921-55.224 131.797-124.563h6.214c6.893 0 12.5-5.607 12.5-12.5v-20.632c0-6.894-5.607-12.501-12.5-12.501zm-27.118-44.359-15.559 15.986-16.226-16.781c-1.413-1.461-3.358-2.287-5.391-2.287-2.033 0-3.979.825-5.392 2.286l-16.211 16.764-16.211-16.764c-1.413-1.461-3.359-2.286-5.392-2.286s-3.979.825-5.392 2.287l-16.21 16.763-16.21-16.763c-1.071-1.107-2.448-1.847-3.936-2.142-.924-5.48-2.18-10.942-3.75-16.334l6.913-7.148 13.901 14.375c1.413 1.461 3.359 2.287 5.392 2.287s3.979-.825 5.392-2.287l13.9-14.376 13.902 14.375c1.413 1.461 3.358 2.286 5.391 2.286s3.979-.825 5.392-2.286l13.901-14.375 13.899 14.375c1.409 1.458 3.349 2.283 5.376 2.287h.015c2.022 0 3.959-.816 5.371-2.265l11.929-12.238c2.522 7.999 4.286 16.172 5.206 24.261zm-23.775-61.618c4.883 6.736 9.133 14.142 12.669 21.92l-11.377 11.672-13.92-14.397c-1.413-1.461-3.358-2.287-5.391-2.287-2.033 0-3.979.825-5.391 2.286l-13.902 14.376-13.902-14.376c-1.413-1.461-3.359-2.286-5.392-2.286s-3.979.825-5.392 2.287l-13.901 14.375-13.901-14.375c-1.413-1.461-3.359-2.287-5.392-2.287s-3.979.825-5.391 2.286l-7.108 7.35c-2.859-6.834-6.23-13.46-10.076-19.759 1.448-2.326 2.964-4.594 4.553-6.786 16.018-22.1 36.121-34.271 56.607-34.271s40.589 12.172 56.607 34.272zm-171.675-23.565c4.053 1.668 8.035 3.82 11.917 6.425l-112.878 112.878c-.725-4.817-1.113-9.802-1.113-14.957 0-.77.035-1.549.052-2.323zm-98.921 77.708c3.907-17.037 11.299-33.789 21.382-47.7 16.018-22.1 36.121-34.271 56.607-34.271 1.282 0 2.562.048 3.84.142zm122.517-61.75c4.205 4.086 8.232 8.752 12.028 13.982l-99.602 99.602h-26.01zm20.244 26.979c2.196 3.995 4.189 8.133 5.976 12.365l-74.239 74.239h-18.341zm11.504 28.051c2.055 7.214 3.476 14.538 4.23 21.781l-36.773 36.773h-26.01zm4.434 42.789c-.501 5.479-1.462 10.738-2.841 15.765h-12.924zm-80.71-265.483c84.897 0 157.428 58.402 176.876 138.996-6.267-4.169-12.798-7.372-19.5-9.555-7.315-21.805-19.307-42.21-34.903-59.279-2.793-3.058-7.538-3.271-10.596-.478-3.058 2.794-3.271 7.538-.478 10.596 12.249 13.406 22.048 29.069 28.78 45.857-1.39-.086-2.783-.137-4.18-.137-25.422 0-49.838 14.372-68.752 40.468-.552.762-1.076 1.547-1.613 2.321-18.442-23.479-41.587-36.346-65.635-36.346s-47.193 12.867-65.635 36.346c-.537-.774-1.061-1.559-1.613-2.321-18.914-26.096-43.331-40.468-68.752-40.468-1.389 0-2.775.051-4.158.136 10.184-25.354 27.329-47.946 49.263-64.55 26.378-19.967 57.809-30.521 90.896-30.521 31.215 0 61.189 9.49 86.681 27.444 3.387 2.385 8.065 1.573 10.451-1.813 2.385-3.387 1.573-8.065-1.813-10.451-28.034-19.743-60.995-30.18-95.319-30.18-36.382 0-70.944 11.605-99.948 33.561-26.632 20.16-46.874 48.351-57.433 79.817-6.701 2.182-13.229 5.385-19.495 9.553 19.448-80.593 91.979-138.996 176.876-138.996zm-192.607 175.271c16.018-22.1 36.121-34.271 56.607-34.271s40.589 12.171 56.607 34.271c1.589 2.192 3.105 4.46 4.553 6.786-5.034 8.243-9.251 17.046-12.574 26.144-2.977 1.891-5.809 4.048-8.457 6.477-11.185-10.264-25.556-15.871-40.881-15.871-15.326 0-29.697 5.607-40.883 15.872-8.175-7.49-18.115-12.513-28.874-14.663 3.766-8.809 8.433-17.199 13.902-24.745zm-19.1 39.071c9.882 1.47 18.965 6.112 26 13.405 2.123 2.201 5.071 3.473 8.13 3.459 3.031-.003 5.854-1.206 7.948-3.385 8.679-9.037 20.355-14.013 32.878-14.013s24.198 4.977 32.878 14.014c2.093 2.179 4.916 3.381 7.947 3.385h.012c.741 0 1.476-.078 2.197-.223-1.491 7.82-2.309 15.694-2.408 23.472-11.149-10.117-25.416-15.648-40.627-15.648-15.327 0-29.699 5.608-40.884 15.874-10.675-9.759-24.496-15.356-38.958-15.823.789-8.153 2.45-16.415 4.887-24.517zm25.999 53.404c2.121 2.199 5.079 3.459 8.118 3.459h.012c3.031-.003 5.854-1.206 7.948-3.385 8.679-9.037 20.355-14.013 32.878-14.013s24.198 4.977 32.878 14.014c2.093 2.179 4.916 3.381 7.947 3.385h.012c.251 0 .5-.021.75-.038.447 3.435 1.06 6.792 1.81 10.08h-118.48c-3.058-8.418-4.827-17.596-5.218-27.397 11.832.393 23.084 5.332 31.345 13.895zm-36.554 59.134h27.826v32.355h-21.089c-3.703-10.204-6.023-21.065-6.737-32.355zm420.071 64.361h-265.809c-4.142 0-7.5 3.358-7.5 7.5s3.358 7.5 7.5 7.5h251.863c-20.76 18.761-48.255 30.203-78.374 30.203h-210.978c-30.119 0-57.614-11.441-78.374-30.203h80.863c4.142 0 7.5-3.358 7.5-7.5s-3.358-7.5-7.5-7.5h-94.809c-4.148-5.321-7.844-11.01-11.036-17.006h417.691c-3.193 5.997-6.888 11.685-11.037 17.006zm-377.245-32.006v-32.355h28.65v32.355zm43.65 0v-32.355h23.906v32.355zm38.906 0v-32.355h28.65v32.355zm43.65 0v-32.355h23.905v32.355zm38.905 0v-32.355h28.65v32.355zm43.65 0v-32.355h23.905v32.355zm38.905 0v-32.355h28.65v32.355zm43.65 0v-32.355h23.906v32.355zm38.906 0v-32.355h28.65v32.355zm64.739 0h-21.089v-32.355h27.826c-.714 11.29-3.034 22.151-6.737 32.355zm25.475-47.355h-482v-15.632h380c4.142 0 7.5-3.358 7.5-7.5s-3.358-7.5-7.5-7.5h-45.623c1.83-7.97 2.765-16.393 2.765-25.195 0-.167-.005-.336-.005-.503l12.87 13.309c1.413 1.461 3.359 2.287 5.392 2.287s3.979-.825 5.392-2.287l16.209-16.763 16.211 16.764c1.413 1.461 3.359 2.286 5.392 2.286s3.979-.825 5.392-2.286l16.21-16.763 16.208 16.763c1.41 1.458 3.351 2.283 5.379 2.287h.013c2.024 0 3.962-.818 5.375-2.269l10.626-10.917c-.67 8.267-2.35 16.058-4.981 23.289h-37.825c-4.142 0-7.5 3.358-7.5 7.5s3.358 7.5 7.5 7.5h67z"/></g></svg>