<svg height="64" width="64" xmlns="http://www.w3.org/2000/svg"><g transform="matrix(1.280134 0 0 1.280134 -2089.590391 -2679.717298)"><path d="m5.894 2.844c.025.588-.123 1.17-.425 1.672s-.746.904-1.275 1.152-1.12.333-1.695.243a2.94 2.94 0 0 1 -1.543-.748 2.98 2.98 0 0 1 -.871-1.486c-.138-.57-.105-1.17.095-1.724a2.97 2.97 0 0 1 1.028-1.379 2.93 2.93 0 0 1 1.615-.571c.78-.033 1.542.247 2.118.78s.918 1.274.952 2.06z" fill="#767677" transform="translate(1669.3 2093.31)"/><g fill="#f37726"><path d="m18.265 7.134c-7.85 0-14.705-2.876-18.265-7.134 1.325 3.82 3.796 7.13 7.07 9.473s7.187 3.6 11.2 3.6 7.927-1.258 11.2-3.6 5.743-5.653 7.068-9.473c-3.568 4.258-10.423 7.134-18.273 7.134z" transform="translate(1639.74 2123.98)"/><path d="m18.273 5.94c7.85 0 14.706 2.877 18.265 7.134-1.325-3.82-3.796-7.13-7.07-9.473s-7.186-3.601-11.198-3.601-7.927 1.258-11.2 3.6-5.745 5.653-7.07 9.473c3.567-4.248 10.423-7.133 18.273-7.133z" transform="translate(1639.73 2097.48)"/></g><path d="m7.428 3.583a3.77 3.77 0 0 1 -.536 2.109c-.382.634-.94 1.14-1.608 1.452s-1.4.42-2.137.306-1.404-.442-1.945-.944-.922-1.153-1.097-1.874a3.78 3.78 0 0 1 .122-2.173c.253-.696.705-1.3 1.3-1.74s1.303-.686 2.037-.716c.983-.04 1.94.314 2.666.985a3.76 3.76 0 0 1 1.198 2.596z" fill="#989798" transform="translate(1639.8 2135.81)"/><path d="m2.275 4.396c-.43.02-.858-.092-1.227-.318s-.663-.558-.845-.951-.243-.835-.177-1.265.257-.832.549-1.152.672-.546 1.09-.65.86-.078 1.265.072.757.417 1.01.77a2.21 2.21 0 0 1 -.156 2.784c-.39.43-.934.684-1.51.71z" fill="#6f7070" transform="translate(1638.36 2098.06)"/></g></svg>