<svg height="512pt" viewBox="0 0 512 512.00372" width="512pt" xmlns="http://www.w3.org/2000/svg"><path d="m489.171875 264h-10.542969c-3.300781-9.3125-12.199218-16-22.628906-16h-84.6875l-49.023438-49.027344 5.0625-11.820312c.882813-2.054688.863282-4.386719-.050781-6.425782-.914062-2.039062-2.640625-3.601562-4.761719-4.3125l-10.539062-3.53125v-15.9375l11.578125-5.789062c2.710937-1.355469 4.421875-4.125 4.421875-7.15625h48c13.234375 0 24-10.765625 24-24s-10.765625-24-24-24-24 10.765625-24 24c0 4.417969 3.582031 8 8 8s8-3.582031 8-8c0-4.410156 3.589844-8 8-8s8 3.589844 8 8-3.589844 8-8 8h-38.109375l1.6875-.84375c2.121094-1.0625 3.664063-3.011719 4.207031-5.320312.546875-2.3125.035156-4.742188-1.390625-6.640626l-6.636719-8.851562 1.179688-2.417969c2.578125-5.246093 3.941406-10.976562 3.941406-16.566406 0-15.351563-9.207031-28.917969-23.332031-34.511719-3.605469-1.492187-7.496094-2.335937-11.472656-2.59375l-10.917969-21.832031c-1.898438-3.785156-6.402344-5.453125-10.308594-3.773437l-56 24c-2.023437.867187-3.597656 2.527343-4.359375 4.59375-.757812 2.066406-.628906 4.355468.351563 6.324218l8.964844 17.988282c-2.035157 2.195312-3.832032 4.621093-5.203126 7.351562-4 8.007812-4.472656 17.410156-1.292968 25.796875 3.179687 8.390625 9.78125 15.128906 18.121094 18.480469l8.171874 3.269531-1.078124 2.695313-8.488282 7.074218-17.515625-5.816406c-4.078125-1.355469-8.5.753906-10.011719 4.785156l-4.421874 11.800782-85.820313 39.007812h-70.265625c-10.429688 0-19.324219 6.6875-22.628906 16h-10.539063c-12.589843 0-22.832031 10.242188-22.832031 22.832031 0 8.699219 4.839844 16.527344 12.625 20.425781l16.394531 8.195313c3.4375 1.71875 7.210938 2.578125 10.984375 2.578125 3.769532 0 7.546875-.859375 10.984375-2.578125l14.40625-7.203125c1.425781 2.203125 3.785157 3.75 6.605469 3.75h56c1.359375 0 2.695312-.347656 3.886719-1.007812l51.105469-28.390626-17.371094 39.144532-2.359375-1.050782c-2.125-.953124-4.546875-.933593-6.644531.054688-2.097657.980469-3.671876 2.824219-4.308594 5.050781l-16 56c-.957032 3.347657.359375 6.925781 3.253906 8.855469l64.738281 43.160156-26.546875 33.1875c-1.511718 1.886719-2.085937 4.351563-1.566406 6.710938.515625 2.359375 2.074219 4.359375 4.234375 5.441406l.667969.335938-11.8125 35.375-8.402344 5.601562c-10.566406 7.042969-16.875 18.828125-16.875 31.53125 0 3.035156 1.710938 5.800781 4.421875 7.15625l16 8c1.136719.570312 2.363281.84375 3.574219.84375 2.078125 0 4.125-.804688 5.660156-2.34375l2.34375-2.34375 2.347656 2.34375c1.496094 1.5 3.535156 2.34375 5.65625 2.34375h71.996094c4.417969 0 8-3.582031 8-8v-15.269531c0-7.765625-3.019531-15.066407-8.511719-20.558594-8.234375-8.238281-20.535156-10.757813-31.359375-6.4375l-7.558594 3.023437 9.410157-18.820312 2.445312 1.222656c1.148438.570313 2.371094.84375 3.570313.84375 2.9375 0 5.761718-1.617187 7.160156-4.421875l27.632812-55.269531 5.25 52.488281c.238282 2.359375 1.507813 4.492188 3.46875 5.820313 1.339844.910156 2.90625 1.382812 4.492188 1.382812.734375 0 1.476562-.101562 2.195312-.308594l1.832032-.523437 6.460937 22.640625-6.066406 3.035156c-2.710937 1.355469-4.417969 4.125-4.417969 7.15625v24c0 4.417969 3.582032 8 8 8h16c2.121094 0 4.15625-.84375 5.65625-2.34375l2.34375-2.34375 2.34375 2.34375c1.5 1.5 3.535156 2.34375 5.65625 2.34375h72c4.417969 0 8-3.582031 8-8v-15.28125c0-7.648437-3.097656-15.132812-8.503906-20.535156-8.117188-8.121094-21.179688-10.539062-31.339844-6.417969l-18.898437 7.527344-10.171875-35.570313 7.117187-2.03125c2.054688-.589843 3.789063-1.976562 4.816407-3.855468 1.027343-1.875 1.257812-4.085938.644531-6.132813l-24-80c-.75-2.496093-2.664063-4.46875-5.132813-5.292969l-39.25-13.082031 3.875-7.75c.054688-.109375.03125-.234375.082032-.347656.398437-.894531.601562-1.820313.65625-2.765625.015624-.292969.023437-.558594.007812-.851562-.050781-1.054688-.246094-2.09375-.703125-3.058594-.015625-.027344-.007813-.054688-.019531-.082032-.003906-.007812-.007813-.011718-.011719-.015624-.378906-.765626-.882813-1.484376-1.511719-2.117188l-3.902344-3.898438 23.609376-47.292968 40.238281 53.652344c1.507812 2.011718 3.878906 3.199218 6.398437 3.199218h96c2.820313 0 5.179688-1.546875 6.605469-3.753906l14.410156 7.207031c3.441407 1.71875 7.210938 2.578125 10.984375 2.578125 3.773438 0 7.546875-.863281 10.984375-2.578125l16.398438-8.199219c7.78125-3.894531 12.613281-11.722656 12.613281-20.421874 0-12.59375-10.242188-22.835938-22.828125-22.835938zm-183.230469 200.238281c-.144531-.035156-.289062-.066406-.433594-.09375l-6.101562-21.367187 16.300781-4.652344 8.792969 30.753906zm60.191406 12.371094c4.519532-1.832031 10.363282-.792969 14.050782 2.886719 2.425781 2.425781 3.816406 5.789062 3.816406 9.222656v7.28125h-60.6875l-5.652344-5.65625c-3.125-3.125-8.1875-3.125-11.316406 0l-5.652344 5.65625h-4.6875v-11.054688l7.574219-3.789062 1.355469-.675781 29.125 7.28125c.644531.160156 1.296875.238281 1.941406.238281.078125 0 .152344-.042969.230469-.046875.929687-.027344 1.851562-.171875 2.730469-.519531zm1.867188-212.609375h64v8h-68.371094l-48.753906-55.722656.625-1.464844 46.84375 46.84375c1.503906 1.5 3.535156 2.34375 5.65625 2.34375zm-136.492188 31.023438-5.359374-2.386719 44.976562-104.945313c.058594.058594.109375.128906.171875.1875l6.863281 8.597656-21.308594 47.941407zm64.492188-116.382813v14.535156l-2.308594-2.890625c0-.003906 0-.003906-.003906-.003906l-6.453125-8.074219-3.8125-4.773437 12.578125-9.433594zm-45.800781-20.789063c.238281-.15625.460937-.324218.683593-.507812l7.914063-6.589844 3.449219 17.246094h-24.152344zm-6.378907 26.148438h11.480469l-43.769531 102.128906-8.425781-3.75 20.324219-47.40625zm13.003907 116.460938-.152344.3125-7.359375-1.46875-1.863281-.375 23.863281-47.679688 18.097656-40.695312 3.742188 4.683593 3.097656 3.878907-7.492188 17.484374zm55.175781-161.40625-11.578125 5.789062c-.429687.214844-.839844.46875-1.21875.757812l-21.84375 16.382813-5.511719-27.554687c-.15625-.773438-.441406-1.492188-.800781-2.167969-.027344-.054688-.035156-.117188-.0625-.171875l.445313-1.117188c.203124-.511718.207031-1.042968.300781-1.566406.078125-.441406.25-.871094.253906-1.3125.003906-.601562-.164063-1.171875-.292969-1.753906-.082031-.386719-.078125-.789063-.21875-1.160156-.234375-.621094-.640625-1.160157-1.023437-1.707032-.191407-.269531-.292969-.582031-.515625-.828125-.671875-.75-1.492188-1.382812-2.453125-1.847656l-2.226563-1.074219c-1.886718-.941406-3.011718-2.8125-3.011718-5.003906 0-1.082031.3125-2.113281.894531-3 1.699219-2.550781 5.15625-3.246094 7.707031-1.542969l12.71875 8.480469c2.457031 1.636719 5.613281 1.785156 8.210938.398438 2.601562-1.394532 4.226562-4.105469 4.226562-7.054688v-10.234375l13.054688-4.351563 9.421874 12.582032c.011719.011718.027344.019531.039063.035156l5.324219 7.105469-7.417969 3.707031c-2.710937 1.355469-4.421875 4.125-4.421875 7.15625zm-27.777344-96.730469 5.289063 10.574219-23.753907 8.886718-18.492187 6.917969-4.328125-8.6875zm-41.953125 62.703125c-1.625-4.277344-1.394531-8.886719.644531-12.964844 1.230469-2.449219 3.023438-4.511719 5.574219-6.226562.859375-.644532 1.90625-1.199219 3.195313-1.703126l44.484375-16.640624c1.8125-.679688 3.667969-1.097657 5.671875-1.285157.636718-.054687 1.269531-.082031 1.898437-.082031 2.6875 0 5.289063.507812 7.800781 1.550781 8.101563 3.210938 13.339844 10.9375 13.339844 19.683594 0 1.300781-.136718 2.625-.398437 3.945313l-6.074219-8.101563c-2.066406-2.757813-5.667969-3.898437-8.9375-2.792969l-24 8c-3.265625 1.089844-5.46875 4.144532-5.46875 7.589844v1.050781l-.28125-.1875c-4.792969-3.199219-10.550781-4.335937-16.1875-3.207031-5.644531 1.128906-10.511719 4.390625-13.742188 9.242188-.746093 1.144531-1.339843 2.359374-1.855468 3.597656-.136719.335937-.261719.667968-.382813 1.011718-.394531 1.097657-.707031 2.214844-.917969 3.363282-.027343.144531-.09375.28125-.117187.429687-1.867187-1.695312-3.320313-3.824219-4.246094-6.273437zm-114.269531 102.972656c1.140625 0 2.269531-.246094 3.308594-.71875l72.828125-33.101562-1.292969 3.453124-76.730469 38.367188h-46.113281v-8zm-84.167969 37.140625c-2.398437 1.203125-5.257812 1.203125-7.65625 0l-16.390625-8.191406c-2.332031-1.167969-3.78125-3.511719-3.78125-6.117188 0-3.765625 3.0625-6.832031 6.828125-6.832031h17.171875c4.417969 0 8-3.582031 8-8 0-4.410156 3.589844-8 8-8h8v27.054688zm82.097657-5.140625h-45.929688v-8h48c1.242188 0 2.46875-.289062 3.578125-.84375l63.011719-31.503906-1.046875 2.785156zm81.566406-29.191406 10.050781-26.808594h9.035156l-17.929687 44.847656-20.175782 47.042969-5.433593-2.402344-2.800781-1.246093zm22.574218 265.78125c4.867188-1.949219 10.398438-.800782 14.101563 2.894531 2.472656 2.46875 3.828125 5.753906 3.828125 9.246094v7.269531h-60.683594l-5.65625-5.65625c-3.125-3.125-8.1875-3.125-11.3125 0l-3.921875 3.921875-5.917969-2.957031c1.195313-5.480469 4.46875-10.34375 9.242188-13.527344l6.25-4.167969 19.566406 13.042969c.613282.410156 1.28125.703125 1.964844.925781.21875.070313.4375.097657.660156.152344.484375.113281.96875.195313 1.464844.214844.117188.003906.230469.050781.347656.050781.164063 0 .324219-.054688.488282-.0625.378906-.023438.746093-.070312 1.117187-.148438.148437-.03125.300781-.019531.449219-.058593.089844-.023438.152344-.09375.238281-.121094.226563-.066406.457031-.089844.679687-.179687zm-33.167968-8.273438-11.378906-7.582031 10.023437-30.015625 16.117187 8.058594zm31.523437-39.050781-31.992187-15.996094 25.8125-32.273437c1.402344-1.75 2.003906-4.007813 1.664062-6.222656-.347656-2.214844-1.605468-4.1875-3.46875-5.429688l-67.140625-44.761719 11.863281-41.519531 1.261719.558594c.003907.003906.011719.011718.019531.015625l3.25 1.4375 51.6875 22.953125.734376.328125-5.703126 17.113281c-1.140624 3.425781.152344 7.1875 3.152344 9.1875l42.121094 28.082031zm77.105469-78.988281 20.476562 68.261718-39 11.140626-7.042968-70.476563c-.019532-.179687-.136719-.324219-.167969-.503906-.125-.753907-.378906-1.453125-.714844-2.140625-.140625-.292969-.226562-.59375-.40625-.867188-.578125-.902344-1.296875-1.71875-2.238281-2.347656l-42.914062-28.609375 3.835937-11.503906 22.792969 4.578125-3.308594 6.613281c-1.035156 2.074219-1.121094 4.496094-.234375 6.640625.886719 2.140625 2.660156 3.792969 4.859375 4.527344zm42.46875-54.277344-42.820312-57.101562 2.703124-6.3125 46.101563 52.683593c1.515625 1.734375 3.707031 2.730469 6.019531 2.730469h71.996094v8zm144.222656-3.054688-16.394531 8.195313c-2.398437 1.203125-5.257813 1.203125-7.65625 0l-20.171875-10.085937v-27.054688h8c4.410156 0 8 3.589844 8 8 0 4.417969 3.582031 8 8 8h17.167969c3.765625 0 6.832031 3.066406 6.832031 6.832031 0 2.605469-1.449219 4.949219-3.777344 6.113281zm0 0"/><path d="m384 80c17.644531 0 32-14.355469 32-32s-14.355469-32-32-32-32 14.355469-32 32 14.359375 32 32 32zm0-48c8.824219 0 16 7.175781 16 16s-7.175781 16-16 16-16-7.175781-16-16 7.175781-16 16-16zm0 0"/><path d="m464 200c17.644531 0 32-14.355469 32-32s-14.355469-32-32-32-32 14.355469-32 32 14.359375 32 32 32zm0-48c8.824219 0 16 7.175781 16 16s-7.175781 16-16 16-16-7.175781-16-16 7.175781-16 16-16zm0 0"/><path d="m168 64c17.648438 0 32.003906-14.355469 32.003906-32s-14.355468-32-32.003906-32c-17.644531 0-32 14.355469-32 32s14.355469 32 32 32zm0-48c8.824219 0 16.003906 7.175781 16.003906 16s-7.179687 16-16.003906 16-16-7.175781-16-16 7.175781-16 16-16zm0 0"/><path d="m40.003906 168c17.644532 0 32-14.355469 32-32s-14.355468-32-32-32c-17.644531 0-32.003906 14.355469-32.003906 32s14.359375 32 32.003906 32zm0-48c8.824219 0 16 7.175781 16 16s-7.175781 16-16 16c-8.824218 0-16-7.175781-16-16s7.175782-16 16-16zm0 0"/></svg>