<?xml version="1.0" encoding="iso-8859-1"?>
<!-- Generator: Adobe Illustrator 19.0.0, SVG Export Plug-In . SVG Version: 6.00 Build 0)  -->
<svg version="1.1" id="Layer_1" xmlns="http://www.w3.org/2000/svg" xmlns:xlink="http://www.w3.org/1999/xlink" x="0px" y="0px"
	 viewBox="0 0 512 512" style="enable-background:new 0 0 512 512;" xml:space="preserve">
<g>
	<g>
		<path d="M366.933,8.533c0-4.71-3.814-8.533-8.533-8.533H153.6c-4.719,0-8.533,3.823-8.533,8.533
			c0,96.64,20.412,173.978,68.173,258.099L204.8,469.333C204.8,492.86,227.763,512,256,512s51.2-19.14,51.191-43.025l-8.431-202.351
			C346.522,182.511,366.933,105.173,366.933,8.533z M256,494.933c-18.825,0-34.133-11.486-34.142-25.242l8.192-196.625h51.9
			l8.183,196.267C290.133,483.448,274.825,494.933,256,494.933z M285.167,256h-58.334c-43.913-78.037-63.471-150.229-64.64-238.933
			h187.614C348.638,105.771,329.079,177.963,285.167,256z"/>
	</g>
</g>
<g>
	<g>
		<path d="M256.085,460.8H256c-4.719,0-8.491,3.823-8.491,8.533s3.857,8.533,8.576,8.533s8.533-3.823,8.533-8.533
			S260.796,460.8,256.085,460.8z"/>
	</g>
</g>
<g>
</g>
<g>
</g>
<g>
</g>
<g>
</g>
<g>
</g>
<g>
</g>
<g>
</g>
<g>
</g>
<g>
</g>
<g>
</g>
<g>
</g>
<g>
</g>
<g>
</g>
<g>
</g>
<g>
</g>
</svg>
