<?xml version="1.0" encoding="iso-8859-1"?>
<!-- Generator: Adobe Illustrator 19.0.0, SVG Export Plug-In . SVG Version: 6.00 Build 0)  -->
<svg version="1.1" id="Layer_1" xmlns="http://www.w3.org/2000/svg" xmlns:xlink="http://www.w3.org/1999/xlink" x="0px" y="0px"
	 viewBox="0 0 503.762 503.762" style="enable-background:new 0 0 503.762 503.762;" xml:space="preserve">
<g transform="translate(-1)">
	<path style="fill:#DAE7EF;" d="M373.932,112.226c-8.351-8.351-21.892-8.351-30.243,0l-5.067,5.067
		c-8.351,8.351-21.892,8.351-30.243,0l-5.067-5.067c-8.351-8.351-21.892-8.351-30.243,0l-5.067,5.067
		c-8.351,8.351-21.892,8.351-30.243,0l-5.067-5.067c-8.351-8.351-21.892-8.351-30.243,0l-5.067,5.067
		c-8.351,8.351-21.892,8.351-30.243,0l-5.067-5.067c-8.351-8.351-21.892-8.351-30.243,0l-5.067,5.067
		c-4.175,4.175-9.649,6.268-15.122,6.268v344.32c0,19.491,15.801,35.302,35.302,35.31l211.862,0.071
		c19.5,0.009,35.319-15.801,35.319-35.31V123.561c-5.473,0-10.946-2.092-15.122-6.268L373.932,112.226z"/>
	<path style="fill:none;stroke:#BBD7EB;" d="M373.932,112.226c-8.351-8.351-21.892-8.351-30.243,0l-5.067,5.067
		c-8.351,8.351-21.892,8.351-30.243,0l-5.067-5.067c-8.351-8.351-21.892-8.351-30.243,0l-5.067,5.067
		c-8.351,8.351-21.892,8.351-30.243,0l-5.067-5.067c-8.351-8.351-21.892-8.351-30.243,0l-5.067,5.067
		c-8.351,8.351-21.892,8.351-30.243,0l-5.067-5.067c-8.351-8.351-21.892-8.351-30.243,0l-5.067,5.067
		c-4.175,4.175-9.649,6.268-15.122,6.268v344.32c0,19.491,15.801,35.302,35.302,35.31l211.862,0.071
		c19.5,0.009,35.319-15.801,35.319-35.31V123.561c-5.473,0-10.946-2.092-15.122-6.268L373.932,112.226L373.932,112.226z"/>
	<path style="fill:#436B1C;" d="M152.958,397.244L152.958,397.244c-23.296,0-39.009-23.826-29.828-45.241l0,0
		c21.442-50.026,21.442-106.664,0-156.69l0,0c-9.181-21.416,6.532-45.241,29.828-45.241c12.985,0,24.717,7.733,29.828,19.668
		l10.964,25.574c21.442,50.026,21.442,106.664,0,156.69l-10.964,25.574C177.675,389.511,165.943,397.244,152.958,397.244"/>
	<path style="fill:#A4E869;" d="M360.753,144.774L360.753,144.774c21.001,10.099,24.832,38.382,7.274,53.698
		c-41.013,35.796-65.554,86.828-67.919,141.206c-1.015,23.278-25.494,37.941-46.495,27.842
		c-11.697-5.632-18.918-17.69-18.353-30.658l1.201-27.789c2.366-54.387,26.915-105.419,67.928-141.215l20.957-18.291
		C335.127,141.031,349.056,139.142,360.753,144.774"/>
	<path style="fill:#659C35;" d="M209.431,493.262L209.431,493.262c-16.472-16.472-10.734-44.429,10.893-53.08
		c50.538-20.215,90.589-60.266,110.804-110.804c8.651-21.628,36.608-27.365,53.08-10.893c9.181,9.181,12.006,22.952,7.186,35.001
		l-10.328,25.83c-20.215,50.538-60.266,90.58-110.804,110.795l-25.83,10.337C232.383,505.267,218.612,502.442,209.431,493.262"/>
	<g>
		<path style="fill:#A4E869;" d="M130.38,211.865c0-4.873,3.955-8.828,8.828-8.828c4.873,0,8.828,3.955,8.828,8.828
			s-3.955,8.828-8.828,8.828C134.334,220.692,130.38,216.738,130.38,211.865"/>
		<path style="fill:#A4E869;" d="M165.69,220.692c0-4.873,3.955-8.828,8.828-8.828c4.873,0,8.828,3.955,8.828,8.828
			c0,4.873-3.955,8.828-8.828,8.828C169.645,229.52,165.69,225.565,165.69,220.692"/>
		<path style="fill:#A4E869;" d="M192.173,273.658c0-4.873,3.955-8.828,8.828-8.828c4.873,0,8.828,3.955,8.828,8.828
			c0,4.873-3.955,8.828-8.828,8.828C196.127,282.485,192.173,278.531,192.173,273.658"/>
		<path style="fill:#A4E869;" d="M156.862,256.003c0-4.873,3.955-8.828,8.828-8.828c4.873,0,8.828,3.955,8.828,8.828
			s-3.955,8.828-8.828,8.828C160.817,264.83,156.862,260.875,156.862,256.003"/>
		<path style="fill:#A4E869;" d="M139.207,291.313c0-4.873,3.955-8.828,8.828-8.828c4.873,0,8.828,3.955,8.828,8.828
			s-3.955,8.828-8.828,8.828C143.162,300.141,139.207,296.186,139.207,291.313"/>
		<path style="fill:#A4E869;" d="M174.517,308.968c0-4.873,3.955-8.828,8.828-8.828s8.828,3.955,8.828,8.828
			s-3.955,8.828-8.828,8.828S174.517,313.841,174.517,308.968"/>
		<path style="fill:#A4E869;" d="M174.517,353.106c0-4.873,3.955-8.828,8.828-8.828s8.828,3.955,8.828,8.828
			c0,4.873-3.955,8.828-8.828,8.828S174.517,357.979,174.517,353.106"/>
		<path style="fill:#A4E869;" d="M148.035,335.451c0-4.873,3.955-8.828,8.828-8.828s8.828,3.955,8.828,8.828
			s-3.955,8.828-8.828,8.828S148.035,340.324,148.035,335.451"/>
	</g>
	<g>
		<path style="fill:#436B1C;" d="M300.744,321.619c-2.11,4.396-7.389,6.241-11.785,4.131c-4.387-2.119-6.241-7.389-4.122-11.785
			c2.11-4.396,7.389-6.241,11.776-4.131C301.009,311.953,302.854,317.223,300.744,321.619"/>
		<path style="fill:#436B1C;" d="M272.75,298.358c-2.11,4.396-7.389,6.241-11.785,4.131c-4.387-2.119-6.241-7.389-4.122-11.785
			c2.11-4.396,7.389-6.241,11.776-4.131C273.015,288.692,274.86,293.962,272.75,298.358"/>
		<path style="fill:#436B1C;" d="M271.843,239.148c-2.11,4.396-7.389,6.241-11.785,4.131c-4.387-2.119-6.241-7.389-4.122-11.785
			c2.11-4.396,7.389-6.241,11.776-4.131C272.108,229.482,273.953,234.752,271.843,239.148"/>
		<path style="fill:#436B1C;" d="M296.011,270.364c-2.11,4.396-7.389,6.241-11.785,4.131c-4.387-2.119-6.241-7.389-4.122-11.785
			c2.11-4.396,7.389-6.241,11.776-4.131C296.275,260.698,298.12,265.968,296.011,270.364"/>
		<path style="fill:#436B1C;" d="M327.227,246.196c-2.11,4.396-7.389,6.241-11.785,4.131c-4.387-2.119-6.241-7.389-4.122-11.785
			c2.11-4.396,7.389-6.241,11.776-4.131C327.492,236.53,329.337,241.8,327.227,246.196"/>
		<path style="fill:#436B1C;" d="M303.059,214.98c-2.11,4.396-7.389,6.241-11.785,4.131c-4.387-2.119-6.241-7.389-4.122-11.785
			c2.11-4.396,7.389-6.241,11.776-4.131C303.324,205.314,305.169,210.584,303.059,214.98"/>
		<path style="fill:#436B1C;" d="M322.191,175.204c-2.11,4.396-7.389,6.241-11.785,4.131c-4.387-2.119-6.241-7.389-4.122-11.785
			c2.11-4.396,7.389-6.241,11.776-4.131C322.456,165.538,324.301,170.808,322.191,175.204"/>
		<path style="fill:#436B1C;" d="M349.11,198.038c-2.11,4.396-7.389,6.241-11.785,4.131c-4.387-2.119-6.241-7.389-4.122-11.785
			c2.11-4.396,7.389-6.241,11.776-4.131C349.375,188.372,351.22,193.642,349.11,198.038"/>
		<path style="fill:#436B1C;" d="M324.549,346.214c3.452-3.452,9.039-3.452,12.482,0c3.452,3.452,3.452,9.039,0,12.482
			c-3.443,3.452-9.031,3.452-12.482,0C321.098,355.253,321.098,349.665,324.549,346.214"/>
		<path style="fill:#436B1C;" d="M343.275,377.423c3.452-3.452,9.039-3.452,12.482,0c3.452,3.452,3.452,9.039,0,12.482
			c-3.443,3.452-9.031,3.452-12.482,0C339.824,386.463,339.824,380.875,343.275,377.423"/>
		<path style="fill:#436B1C;" d="M324.549,433.602c3.452-3.452,9.039-3.452,12.482,0c3.452,3.452,3.452,9.039,0,12.482
			c-3.443,3.452-9.031,3.452-12.482,0C321.098,442.642,321.098,437.054,324.549,433.602"/>
		<path style="fill:#436B1C;" d="M312.065,396.15c3.452-3.452,9.039-3.452,12.482,0c3.452,3.452,3.452,9.039,0,12.482
			c-3.443,3.452-9.031,3.452-12.482,0C308.614,405.19,308.614,399.602,312.065,396.15"/>
		<path style="fill:#436B1C;" d="M274.613,408.634c3.452-3.452,9.039-3.452,12.482,0c3.452,3.452,3.452,9.039,0,12.482
			c-3.443,3.452-9.031,3.452-12.482,0C271.162,417.674,271.162,412.086,274.613,408.634"/>
		<path style="fill:#436B1C;" d="M287.097,446.086c3.452-3.452,9.039-3.452,12.482,0c3.452,3.452,3.452,9.039,0,12.482
			c-3.443,3.452-9.031,3.452-12.482,0C283.646,455.126,283.646,449.538,287.097,446.086"/>
		<path style="fill:#436B1C;" d="M255.887,477.297c3.452-3.452,9.039-3.452,12.482,0c3.452,3.452,3.452,9.039,0,12.482
			c-3.443,3.452-9.031,3.452-12.482,0C252.435,486.336,252.435,480.749,255.887,477.297"/>
		<path style="fill:#436B1C;" d="M249.645,446.086c3.452-3.452,9.039-3.452,12.482,0c3.452,3.452,3.452,9.039,0,12.482
			c-3.443,3.452-9.031,3.452-12.482,0C246.193,455.126,246.193,449.538,249.645,446.086"/>
	</g>
	<path style="fill:#546A79;" d="M394.122,49.24V17.655C394.122,7.91,386.221,0,376.467,0H129.754
		c-9.693,0-17.576,7.812-17.655,17.505l-0.274,31.735c-0.115,13.7-5.614,26.809-15.307,36.502
		c-11.149,11.149-11.149,29.228,0,40.377c8.351,8.351,21.892,8.351,30.243,0l5.067-5.067c8.351-8.351,21.892-8.351,30.243,0
		l5.067,5.067c8.351,8.351,21.892,8.351,30.243,0l5.067-5.067c8.351-8.351,21.892-8.351,30.243,0l5.067,5.067
		c8.351,8.351,21.892,8.351,30.243,0l5.067-5.067c8.351-8.351,21.892-8.351,30.243,0l5.067,5.067c8.351,8.351,21.892,8.351,30.243,0
		l5.067-5.067c8.351-8.351,21.892-8.351,30.243,0l5.067,5.067c8.351,8.351,21.892,8.351,30.243,0
		c11.149-11.149,11.149-29.228,0-40.377C399.56,76.058,394.122,62.932,394.122,49.24"/>
	<path style="fill:#749EB5;" d="M411.777,44.141H93.984c-4.882,0-8.828-3.946-8.828-8.828s3.946-8.828,8.828-8.828h317.793
		c4.882,0,8.828,3.946,8.828,8.828S416.659,44.141,411.777,44.141"/>
</g>
<g>
</g>
<g>
</g>
<g>
</g>
<g>
</g>
<g>
</g>
<g>
</g>
<g>
</g>
<g>
</g>
<g>
</g>
<g>
</g>
<g>
</g>
<g>
</g>
<g>
</g>
<g>
</g>
<g>
</g>
</svg>
