<?xml version="1.0" encoding="utf-8"?>
<!-- Svg Vector Icons : http://www.onlinewebfonts.com/icon -->
<!DOCTYPE svg PUBLIC "-//W3C//DTD SVG 1.1//EN" "http://www.w3.org/Graphics/SVG/1.1/DTD/svg11.dtd">
<svg version="1.1" xmlns="http://www.w3.org/2000/svg" xmlns:xlink="http://www.w3.org/1999/xlink" x="0px" y="0px" viewBox="0 0 1000 1000" enable-background="new 0 0 1000 1000" xml:space="preserve">
<metadata> Svg Vector Icons : http://www.onlinewebfonts.com/icon </metadata>
<g><g id="_x32_069a460dcf28295e231f3111e04100d"><path d="M990,389.1c-0.9,7.2-9.2,11.4-49.1,11.1c-193.7-1.7-218,27.6-218,27.6s-16.3,9.5-5.1,31.1c12,23.1,157.3,192.9,188.7,251.4c20.4,37.9,49.1,103.6-64.9,142.5c-111.6,38.9-320.8,0.4-322.2,0c-50.7-12.7-49.5-21.4-48.9-25.1c1-7.2,9.1-11,49-11c183.8,0.2,272.6-12.8,294.1-26.2c13.2-8.2,15.4-20.7,14.2-31.6c-2.7-24-59.6-93.8-106.6-148.8c-48.3-56.6-151-155.3-81.8-215.2c83.1-71.8,266.2-40.2,302-32.5C979.4,370.2,990.8,383.1,990,389.1z M389.6,77c80.9-0.1,143.8,5.2,186.8,12.9c87.6,15.8,67,60,42.1,102.3c-60.4,103-223.5,218.8-233,225.4c-12.4,8.6-5.6,13.6,5.2,9.5C523,377.9,656.3,293.1,710.1,190c45.7-87.4,12.9-128.9-56.7-148.4c-124.3-35-253.1-2.9-263.9,0.3c-15.5,4.5-46.6,13.1-44,24.5C347.3,73.6,353.5,77,389.6,77z M468.5,494.3c-128.9-38.1-269.5-5-290.9,0.7c-32.5,8.6-51.5,17.3-50.1,27.5c1,7.5,9.3,12.7,49.2,11.7c95.1-2.3,173.8,0.9,223.6,14.9c61.7,17.2,69.3,49,38.7,111.4c-14.1,28.8-35,58.6-66.6,90.3c-63.1,63.3-142,104.5-186.5,127c-43.2,21.9-59,10.3-54.2-11.4c5.9-26.5,128.5-238.6,128.5-238.6c9.2-16.1,10.9-31.2,0-35.8c-9.3-4-26.1,9.1-43.6,29.4C145,704.4,13,957.3,10.5,965.6c-2.4,7.9,3.8,9,6.2,9c55.9-0.4,398.9-101.9,509.6-309.3C584.6,556.1,555.1,520,468.5,494.3z"/></g></g>
</svg>
