<?xml version="1.0" encoding="utf-8"?>
<!-- Generator: Adobe Illustrator 24.1.0, SVG Export Plug-In . SVG Version: 6.00 Build 0)  -->
<svg version="1.1" id="Ebene_1" xmlns="http://www.w3.org/2000/svg" xmlns:xlink="http://www.w3.org/1999/xlink" x="0px" y="0px"
	 viewBox="0 0 1000 1000" style="enable-background:new 0 0 1000 1000;" xml:space="preserve">
<style type="text/css">
	.st0{fill:#0B2659;}
	.st1{fill:#009FE3;}
</style>
<g id="VM_Ware_1">
</g>
<g id="VM_Ware_2">
</g>
<g>
	<g>
		<g>
			<path class="st0" d="M945.5,689.1H55.7V164.6h889.8L945.5,689.1L945.5,689.1z M989.2,710.3V143.7c0,0,0-23.7-27.3-23.7H38.7
				c0,0-27.3,0-27.3,23.7v566.6c0,0,0,23.7,27.3,23.7h357.6c-0.3,4.4-2.8,42.4-5.2,65.8c-2.5,24.9-3.7,30.4-6.6,38.2
				s-9.9,12.1-20.3,17.5c-10.3,5.5-19.7,13-21,14.4c-1.4,1.4-0.4,6.2,0.8,7.4c1.2,1.2,4.5,2.9,9,2.9h298.8c3.5-1,6.4-4.5,6.4-7.8
				s-1-4.7-5.8-8.6c-4.9-3.9-20.3-10.9-29-16.2c-8.8-5.3-9.7-19.7-13.8-47.9c-3.8-26.2-4.8-60.9-4.9-65.8H962
				C962,734,989.2,734,989.2,710.3"/>
		</g>
	</g>
	<polygon class="st1" points="310.4,524.2 310.4,361 310.4,343.3 323,350.5 476,437.4 489.7,445.3 489.7,464.5 489.7,627.8 
		489.7,645.4 477.1,638.3 324.1,551.3 310.4,543.5 	"/>
	<polygon class="st1" points="688.7,524.2 688.7,361 688.7,343.4 676.1,350.5 523.1,437.4 509.4,445.3 509.4,464.5 509.4,627.8 
		509.4,645.4 521.9,638.3 674.9,551.3 688.7,543.5 	"/>
	<polygon class="st1" points="506.6,426.1 664.5,339.1 688.7,325.7 664.1,313.3 506.8,234.2 500.2,230.9 493.7,234.2 336.4,313.3 
		311.8,325.7 335.9,339 492.5,426.1 499.6,430 	"/>
</g>
</svg>
