<?xml version="1.0" encoding="UTF-8"?>
<svg xmlns="http://www.w3.org/2000/svg" viewBox="0 0 512 512" width="512" height="512"><g id="outline"><path d="M495.672,116.234,423.157,85.7a129.138,129.138,0,0,1-.741-53.7H488a8,8,0,0,0,0-16H24a8,8,0,0,0,0,16H89.584a129.16,129.16,0,0,1-.456,52.393L20.941,112.608a8,8,0,1,0,6.118,14.784L95.021,99.27a299.176,299.176,0,0,1,68.75,64.364L181.18,186.04a7.975,7.975,0,0,0,4.511,4.941c.151.064.3.112.455.165a7.973,7.973,0,0,0,5.457.63,274.293,274.293,0,0,1,56.4-7.511V288.581a55.717,55.717,0,0,0-26.622,11.453L200,284V240a8,8,0,0,0-16,0v48a8,8,0,0,0,3.2,6.4l23.086,17.315A55.807,55.807,0,0,0,202.341,328h-22.5l-29.6-37a8,8,0,0,0-12.494,10l32,40A8,8,0,0,0,176,344h24a56.5,56.5,0,0,0,2.035,15.05l-30.151,18.09a8,8,0,0,0-3.039,3.282l-16,32a8,8,0,1,0,14.31,7.156l14.958-29.916,26.428-15.857a55.688,55.688,0,0,0,10.266,12.074l-24.464,24.464A8,8,0,0,0,192,416v48a8,8,0,0,0,2.343,5.657l24,24a8,8,0,1,0,11.314-11.314L208,460.687V419.313l8.138-8.137a39.987,39.987,0,0,0,79.724,0L304,419.313v41.374l-21.657,21.656a8,8,0,0,0,11.314,11.314l24-24A8,8,0,0,0,320,464V416a8,8,0,0,0-2.343-5.657l-24.479-24.479A56.228,56.228,0,0,0,303.4,373.769l26.488,15.893,14.958,29.916a8,8,0,1,0,14.31-7.156l-16-32a8,8,0,0,0-3.039-3.282l-30.189-18.113A55.685,55.685,0,0,0,312,344h24a8,8,0,0,0,6.247-3l32-40a8,8,0,0,0-12.494-10l-29.6,37h-22.5a55.819,55.819,0,0,0-7.945-16.285L324.8,294.4A8,8,0,0,0,328,288V240a8,8,0,0,0-16,0v44l-21.378,16.034A55.717,55.717,0,0,0,264,288.581V184.265a274.542,274.542,0,0,1,52.763,6.663,7.948,7.948,0,0,0,7.6.861c.155-.063.3-.138.449-.21a7.99,7.99,0,0,0,3.868-2.779l15.276-20.369a298.681,298.681,0,0,1,71.9-68.446l73.614,30.995a8,8,0,0,0,6.209-14.746ZM360,32h16V65.846l-16-6.737Zm-32,0h16V52.372l-16-6.736Zm9.468,34.983-39.305,39.3-6.55-16.078,29.932-29.932ZM289.731,128l6.519,16h-82.1l6.737-16Zm-62.1-16,6.737-16h42.33l6.519,16ZM312,32v6.9L295.615,32Zm-6.377,21.574-20.56,20.559L270.7,38.868Zm-49.745-8.669,14.3,35.1H241.1ZM226.426,73.622,206.107,53.3l34.967-14.469ZM200,32h15.744L200,38.515Zm19.722,57.545-6.705,15.923L174.1,66.548l16-6.622ZM168,32h16V45.135l-16,6.621Zm-32,0h16V58.377L136,65Zm-30.127,0H120V71.618l-13.334,5.518A145.451,145.451,0,0,0,105.873,32Zm81.074,135.385-10.541-13.568a315.132,315.132,0,0,0-63.872-61.794l13.549-5.606,66.821,66.82ZM142.088,79.794l16-6.623,48.219,48.22-6.7,15.923ZM279.449,413.1a8.014,8.014,0,1,0-5.325,10.607,23.949,23.949,0,0,1-36.248,0,8,8,0,1,0-5.325-10.607,24,24,0,1,1,46.9,0ZM296,344a40.15,40.15,0,0,1-16.023,32,39.916,39.916,0,0,0-47.953,0A39.742,39.742,0,0,1,219.1,359.489c-.058-.14-.116-.279-.183-.416A40.012,40.012,0,1,1,296,344ZM201.848,173.226,207.417,160h95.351L308,172.84A292.253,292.253,0,0,0,201.848,173.226Zm109.415-34.783-6.55-16.078,48.678-48.678,15.923,6.7Zm19.887,20.388-7.5,10.006-5.833-14.317L385.238,87.1l13.2,5.557A314.62,314.62,0,0,0,331.15,158.831ZM405.5,78.267,392,72.583V32h14.127A145.468,145.468,0,0,0,405.5,78.267Z"/></g></svg>
