<?xml version="1.0" encoding="iso-8859-1"?>
<!-- Generator: Adobe Illustrator 18.0.0, SVG Export Plug-In . SVG Version: 6.00 Build 0)  -->
<!DOCTYPE svg PUBLIC "-//W3C//DTD SVG 1.1//EN" "http://www.w3.org/Graphics/SVG/1.1/DTD/svg11.dtd">
<svg version="1.1" id="Capa_1" xmlns="http://www.w3.org/2000/svg" xmlns:xlink="http://www.w3.org/1999/xlink" x="0px" y="0px"
	 viewBox="0 0 490 490" style="enable-background:new 0 0 490 490;" xml:space="preserve">
<g>
	<path d="M245,314.021c-5.936,0-10.743,4.813-10.743,10.749s4.808,10.751,10.743,10.751c5.938,0,10.75-4.815,10.75-10.751
		S250.938,314.021,245,314.021z"/>
	<path d="M480,21.003H10c-5.523,0-10,4.477-10,10v327.456c0,5.522,4.477,10,10,10h174.711l-17.492,42.43h-32.88
		c-5.522,0-10,4.478-10,10v38.108c0,5.523,4.478,10,10,10h221.323c5.522,0,10-4.477,10-10v-38.108c0-5.522-4.478-10-10-10h-32.879
		l-17.493-42.43H480c5.522,0,10-4.478,10-10V31.003C490,25.479,485.522,21.003,480,21.003z M470,41.003v240.901H20V41.003H470z
		 M345.662,448.997H144.339v-18.108h201.323V448.997z M301.149,410.889H188.852l17.492-42.43h77.312L301.149,410.889z M20,348.459
		v-46.555h450v46.555H20z"/>
	<path d="M323.206,161.089L323.206,161.089L323.206,161.089c0-5.522-4.478-10-10.001-9.999l-10.664,0.001
		c-0.603-3.473-1.497-6.846-2.686-10.08l9.221-5.324c4.782-2.763,6.421-8.879,3.658-13.661c-2.763-4.782-8.877-6.423-13.66-3.659
		l-9.248,5.342c-2.233-2.669-4.699-5.135-7.368-7.369l5.342-9.247c2.763-4.782,1.125-10.899-3.657-13.661
		c-4.782-2.764-10.898-1.125-13.661,3.657l-5.325,9.22c-3.234-1.189-6.607-2.084-10.08-2.688V92.962c0-5.523-4.477-10-10-10
		c-0.025,0-0.051,0.004-0.076,0.004s-0.051-0.004-0.076-0.004c-5.522,0-10,4.477-10,10v10.658c-3.473,0.604-6.846,1.498-10.08,2.688
		l-5.325-9.22c-2.763-4.782-8.879-6.421-13.661-3.657c-4.782,2.762-6.42,8.879-3.657,13.661l5.342,9.247
		c-2.669,2.234-5.135,4.7-7.368,7.369l-9.248-5.342c-4.783-2.764-10.897-1.123-13.66,3.659c-2.763,4.782-1.124,10.898,3.658,13.661
		l9.221,5.324c-1.189,3.234-2.083,6.607-2.686,10.08l-10.664-0.001c-5.523-0.001-10.001,4.477-10.001,9.999l0,0l0,0l0,0l0,0
		c0,5.523,4.478,10,10.001,10l10.664-0.001c0.602,3.472,1.497,6.845,2.686,10.079l-9.221,5.325
		c-4.782,2.763-6.421,8.878-3.658,13.661c2.763,4.781,8.877,6.422,13.66,3.658l9.248-5.342c2.233,2.67,4.699,5.136,7.368,7.369
		l-5.342,9.248c-2.763,4.782-1.125,10.898,3.657,13.66c4.782,2.764,10.898,1.125,13.661-3.656l5.325-9.221
		c3.234,1.189,6.607,2.085,10.08,2.688v10.658c0,5.523,4.478,10,10,10c0.025,0,0.051-0.004,0.076-0.004s0.051,0.004,0.076,0.004
		c5.523,0,10-4.477,10-10v-10.658c3.473-0.603,6.846-1.498,10.08-2.688l5.325,9.221c2.763,4.781,8.879,6.42,13.661,3.656
		c4.782-2.762,6.42-8.878,3.657-13.66l-5.342-9.248c2.669-2.233,5.135-4.699,7.368-7.369l9.248,5.342
		c4.783,2.764,10.898,1.123,13.66-3.658c2.763-4.783,1.124-10.898-3.658-13.661l-9.221-5.325c1.189-3.234,2.083-6.607,2.686-10.079
		l10.664,0.001C318.728,171.089,323.206,166.612,323.206,161.089L323.206,161.089L323.206,161.089z M245.076,199.433
		c-0.025,0-0.051-0.002-0.076-0.002s-0.051,0.002-0.076,0.002c-21.141,0-38.34-17.2-38.34-38.344
		c0-21.143,17.199-38.344,38.34-38.344c0.025,0,0.051,0.002,0.076,0.002s0.051-0.002,0.076-0.002
		c21.141,0,38.34,17.201,38.34,38.344C283.416,182.232,266.217,199.433,245.076,199.433z"/>
</g>
<g>
</g>
<g>
</g>
<g>
</g>
<g>
</g>
<g>
</g>
<g>
</g>
<g>
</g>
<g>
</g>
<g>
</g>
<g>
</g>
<g>
</g>
<g>
</g>
<g>
</g>
<g>
</g>
<g>
</g>
</svg>
