<svg xmlns="http://www.w3.org/2000/svg" width="48" height="48" viewBox="0 0 48 48"><g stroke="#000" transform="translate(-8 -996.362)"><path fill="#c28744" fill-rule="evenodd" stroke-linecap="round" d="m 52.49999,1030.9872 0,5.8755 c 1e-5,2.4848 -2.01471,4.4995 -4.5,4.4995 -2.48528,0 -4.5,-2.0147 -4.49999,-4.5058 l -1e-5,-4.4201"/><path fill="#ffd180" fill-rule="evenodd" stroke-linecap="round" stroke-linejoin="round" d="M 20.5,15.998047 20.5,39.5 C 20.5,37.0147 18.48528,35 16,35 c -2.48528,0 -4.49999,2.0147 -4.5,4.5 10e-6,2.4853 2.014716,4.5 4.503906,4.5 l 31.994141,0 c 2.4863,0 4.501963,2.0154 4.501953,4.5 l 0,-28.001953 C 52.50001,18.014747 50.485747,16 47.998047,16 l -1.373047,0 0,5.984375 c 0,0.554 -0.446,1 -1,1 -0.554,0 -1,-0.446 -1,-1 l 0,-5.984375 -2,0 0,3.984375 c 0,0.554 -0.446,1 -1,1 -0.554,0 -1,-0.446 -1,-1 L 40.625,16 20.505859,16 20.5,15.998047 Z" transform="translate(0 988.362)"/><path fill="#c28744" fill-rule="evenodd" stroke-linecap="round" stroke-linejoin="round" d="m 11.50001,1003.8622 -2e-5,0 c 10e-6,-2.4853 2.01474,-4.5 4.50002,-4.5 2.48528,0 4.50001,2.0147 4.50002,4.5 l -2e-5,0 10e-6,24 c 0,-2.4853 -2.01473,-4.5 -4.50001,-4.5 -2.48528,0 -4.50001,2.0147 -4.50001,4.5 10e-6,2.4853 10e-6,-24 10e-6,-24 z"/><path style="line-height:normal;text-indent:0;text-align:start;text-decoration-line:none;text-decoration-style:solid;text-decoration-color:#000;text-transform:none;block-progression:tb;white-space:normal;isolation:auto;mix-blend-mode:normal;solid-color:#000;solid-opacity:1" fill="#59505b" fill-rule="evenodd" stroke="none" d="m 25.117188,1012.1953 -0.0332,0.022 -0.02734,0.027 -0.111329,0.1094 0.699219,0.7149 0.08398,-0.08 0.65625,-0.4688 -0.582032,-0.8144 z m -1.652344,2.1875 -0.01953,0.035 -0.01172,0.037 -0.199219,0.5937 0.947266,0.3184 0.185547,-0.5508 0.15625,-0.2988 -0.884766,-0.4668 z m -0.462891,2.8711 0.105469,0.7422 0.0059,0.039 0.01172,0.039 0.07422,0.2383 0.955078,-0.2969 -0.0625,-0.1992 -0.09961,-0.7031 z m 15.46875,1.0547 -0.0293,0 -0.0293,0.01 -0.294921,0.057 0.189453,0.9825 0.261718,-0.051 0.671875,-0.049 -0.07227,-0.9981 z m 2.492188,1.2226 0.568359,0.2461 0.234375,0.1622 0.566406,-0.8223 -0.273437,-0.1895 -0.04102,-0.027 -0.04297,-0.019 -0.611328,-0.2676 z m -5.023438,-0.5019 -0.01758,0.01 -0.01563,0.01 -0.732422,0.3418 0.423828,0.9062 0.720703,-0.3359 0.01172,-0.01 0.146484,-0.055 -0.357421,-0.9336 z m -11.800781,1.207 0.162109,0.2305 0.02148,0.031 0.02734,0.029 0.5,0.5176 0.71875,-0.6953 -0.470703,-0.4863 -0.140625,-0.2012 z m 8.787109,0.25 -0.01563,0.01 -0.0098,0.01 -0.416016,0.1797 0.396484,0.918 0.441407,-0.1914 0.01367,-0.01 0.01172,-0.01 0.462891,-0.2324 -0.447266,-0.8946 z m 10.09375,0.7325 0.140625,0.2089 0.248047,0.6016 0.923828,-0.3828 -0.265625,-0.6426 -0.01953,-0.047 -0.02734,-0.041 -0.167969,-0.2519 z m -16.289062,1.0039 0.61914,0.2128 0.03711,0.014 0.03906,0.01 0.337891,0.06 0.175781,-0.9844 -0.3125,-0.057 -0.570312,-0.1973 z m 3.933593,-0.8438 -0.748046,0.168 -0.13086,0.014 0.109375,0.9942 0.15625,-0.018 0.02734,0 0.02734,-0.01 0.810547,-0.1836 0.02344,0 0.02148,-0.01 0.0098,0 -0.191406,-0.5957 -0.08203,-0.3633 z m 12.8125,3.1445 0.984376,0.1778 0.146484,-0.8067 -0.984375,-0.1777 z" color="#000" enable-background="accumulate" font-family="sans-serif" font-weight="400" overflow="visible"/><path style="line-height:normal;text-indent:0;text-align:start;text-decoration-line:none;text-decoration-style:solid;text-decoration-color:#000;text-transform:none;block-progression:tb;white-space:normal;isolation:auto;mix-blend-mode:normal;solid-color:#000;solid-opacity:1" fill="#f24b45" fill-rule="evenodd" stroke="none" d="m 42.445083,1025.3881 a 0.50005,0.50005 0 0 0 -0.347656,0.8594 l 1.015625,1.0156 -1.015625,1.0176 a 0.50005,0.50005 0 1 0 0.707031,0.707 l 1.015625,-1.0156 1.015625,1.0156 a 0.50005,0.50005 0 1 0 0.707031,-0.707 l -1.015625,-1.0176 1.015625,-1.0156 a 0.50005,0.50005 0 0 0 -0.363281,-0.8594 0.50005,0.50005 0 0 0 -0.34375,0.1523 l -1.015625,1.0157 -1.015625,-1.0157 a 0.50005,0.50005 0 0 0 -0.359375,-0.1523 z" color="#000" enable-background="accumulate" font-family="sans-serif" font-weight="400" overflow="visible"/><path style="line-height:normal;text-indent:0;text-align:start;text-decoration-line:none;text-decoration-style:solid;text-decoration-color:#000;text-transform:none;block-progression:tb;white-space:normal;isolation:auto;mix-blend-mode:normal;solid-color:#000;solid-opacity:1" fill="#c28744" fill-rule="evenodd" stroke="none" d="m 30.787693,1012.0773 a 0.50005,0.50005 0 0 0 -0.355469,0.1836 l -3.623047,4.4199 a 0.50005,0.50005 0 1 0 0.773438,0.6328 l 3.167968,-3.8633 1.46875,2.502 -1.279296,1.8183 a 0.50005,0.50005 0 1 0 0.818359,0.5742 l 1.017578,-1.4453 a 0.50043663,0.50043663 0 1 0 0.861328,-0.5097 l -0.228515,-0.3887 1.277343,-1.8145 1.720703,2.7247 a 0.5004134,0.5004134 0 1 0 0.845704,-0.5352 l -2.121094,-3.3574 a 0.50005,0.50005 0 0 0 -0.419922,-0.2344 0.50005,0.50005 0 0 0 -0.412109,0.2129 l -1.447266,2.0566 -1.601563,-2.7285 a 0.50005,0.50005 0 0 0 -0.412109,-0.248 0.50005,0.50005 0 0 0 -0.05078,0 z" color="#000" enable-background="accumulate" font-family="sans-serif" font-weight="400" overflow="visible"/><path style="line-height:normal;text-indent:0;text-align:start;text-decoration-line:none;text-decoration-style:solid;text-decoration-color:#000;text-transform:none;block-progression:tb;white-space:normal;isolation:auto;mix-blend-mode:normal;solid-color:#000;solid-opacity:1" fill="#8dba2a" stroke="none" d="M36.220703 1023.041c-1.029611 0-1.875.8454-1.875 1.875 0 1.0296.845389 1.875 1.875 1.875 1.029612 0 1.875-.8454 1.875-1.875 0-1.0296-.845388-1.875-1.875-1.875zm0 1c.489172 0 .875.3858.875.875 0 .4892-.385828.875-.875.875-.489171 0-.875-.3858-.875-.875 0-.4892.385829-.875.875-.875zM25.171875 1024.8086c-1.029612 0-1.875.8454-1.875 1.875 0 1.0296.845388 1.875 1.875 1.875 1.029612 0 1.875-.8454 1.875-1.875 0-1.0296-.845388-1.875-1.875-1.875zm0 1c.489171 0 .875.3858.875.875 0 .4892-.385829.875-.875.875-.489171 0-.875-.3858-.875-.875 0-.4892.385829-.875.875-.875zM43.203125 1013.0957c-1.029612 0-1.875.8454-1.875 1.875 0 1.0296.845388 1.875 1.875 1.875 1.029612 0 1.875-.8454 1.875-1.875 0-1.0296-.845388-1.875-1.875-1.875zm0 1c.489171 0 .875.3858.875.875 0 .4892-.385829.875-.875.875-.489171 0-.875-.3858-.875-.875 0-.4892.385829-.875.875-.875z" color="#000" enable-background="accumulate" font-family="sans-serif" font-weight="400" overflow="visible"/><path d="m 27.703125,1008.3457 c -1.029612,0 -1.875,0.8454 -1.875,1.875 0,1.0296 0.845388,1.875 1.875,1.875 1.029612,0 1.875,-0.8454 1.875,-1.875 0,-1.0296 -0.845388,-1.875 -1.875,-1.875 z m 0,1 c 0.489171,0 0.875,0.3858 0.875,0.875 0,0.4892 -0.385829,0.875 -0.875,0.875 -0.489171,0 -0.875,-0.3858 -0.875,-0.875 0,-0.4892 0.385829,-0.875 0.875,-0.875 z" style="line-height:normal;text-indent:0;text-align:start;text-decoration-line:none;text-decoration-style:solid;text-decoration-color:#000;text-transform:none;block-progression:tb;white-space:normal;isolation:auto;mix-blend-mode:normal;solid-color:#000;solid-opacity:1" fill="#f24b45" stroke="none" color="#000" enable-background="accumulate" font-family="sans-serif" font-weight="400" overflow="visible"/></g></svg>