<svg id="SvgjsSvg1032" width="288" height="288" xmlns="http://www.w3.org/2000/svg" version="1.1" xmlns:xlink="http://www.w3.org/1999/xlink" xmlns:svgjs="http://svgjs.com/svgjs"><defs id="SvgjsDefs1033"></defs><g id="SvgjsG1034" transform="matrix(1,0,0,1,0,0)"><svg xmlns="http://www.w3.org/2000/svg" xmlns:svgjs="http://svgjs.com/svgjs" xmlns:xlink="http://www.w3.org/1999/xlink" width="288" height="288"><svg xmlns="http://www.w3.org/2000/svg" width="288" height="288" enable-background="new 0 0 64 64" viewBox="0 0 64 64"><polyline fill="#906554" points="34.51 27.985 34.51 15.995 57.51 15.995 57.51 47.995 34.51 47.995" class="colorf4f8f8 svgShape color906554"></polyline><polygon fill="#dbeef6" points="34.51 45.442 34.51 47.995 57.51 47.995 57.51 22.442" class="colordbe7f6 svgShape colordbeef6"></polygon><polygon fill="#dbeef6" points="50.51 47.995 50.51 37.995 53.51 35.995 53.51 15.995 57.51 15.995 57.51 47.995" class="colordbe7f6 svgShape colordbeef6"></polygon><polygon fill="#b4dbea" points="53.51 26.442 53.51 35.995 50.51 37.995 50.51 47.995 57.51 47.995 57.51 22.442" class="colorb4cbea svgShape colorb4dbea"></polygon><path fill="#79bbd5" d="M16.99,48.005c1.381,0,2.5-1.119,2.5-2.5v-7.5v-2.5c0-1.381,1.119-2.5,2.5-2.5h2.5h17.5    c1.381,0,2.5,1.119,2.5,2.5v10c0,1.381-1.119,2.5-2.5,2.5H16.99z" class="color79a1d5 svgShape color79bbd5"></path><path fill="#b4dbea" d="M41.99,27.985l-11.5,0.004v5l11.5-0.004c1.381,0,2.5,1.119,2.5,2.5v-5    C44.49,29.104,43.37,27.985,41.99,27.985z" class="colorb4cbea svgShape colorb4dbea"></path><path fill="#dbeef6" d="M43.757,28.717c-0.452-0.452-1.077-0.732-1.767-0.732l-11.5,0.004v5l8.998-0.003L43.757,28.717z" class="colordbe7f6 svgShape colordbeef6"></path><path fill="#b4dbea" d="M24.49,33.005h-2.5c-1.381,0-2.5,1.119-2.5,2.5v2.5v7.5c0,1.381-1.119,2.5-2.5,2.5h7.479l15-15H24.49z" class="colorb4cbea svgShape colorb4dbea"></path><path fill="#dbeef6" d="M7.49,17.989L7.49,17.989c1.657,0,3,1.343,3,3v4.006h-6v-4.006C4.49,19.332,5.833,17.989,7.49,17.989z" class="colordbe7f6 svgShape colordbeef6"></path><path fill="#906554" d="M10.49,24.995v20h9l0,0v-6.99v-2.5c0-1.381,1.119-2.5,2.5-2.5h2.5h6v-8.349v-3.667c0-1.657-1.343-3-3-3    h-1.333H7.49c1.657,0,3,1.343,3,3v3V24.995z" class="colorf4f8f8 svgShape color906554"></path><path fill="#dbeef6" d="M29.61,18.867l-19.12,19.12v7.008h9l0,0v-6.99v-2.5v0c0-1.381,1.119-2.5,2.5-2.5h0h2.5h6v-8.349v-3.667    C30.49,20.16,30.153,19.41,29.61,18.867z" class="colordbe7f6 svgShape colordbeef6"></path><path fill="#b4dbea" d="M4.49,24.995h6v-4.006c0-0.583-0.173-1.122-0.461-1.583L4.49,24.945V24.995z" class="colorb4cbea svgShape colorb4dbea"></path><rect width="2" height="3" x="57.51" y="17.989" fill="#dbeef6" class="colordbe7f6 svgShape colordbeef6"></rect><rect width="2" height="3" x="57.51" y="22.989" fill="#b4dbea" class="colorb4cbea svgShape colorb4dbea"></rect><rect width="2" height="3" x="57.51" y="27.989" fill="#79bbd5" class="color79a1d5 svgShape color79bbd5"></rect><rect width="8" height="3" x="41.51" y="19.995" fill="#dbeef6" class="colordbe7f6 svgShape colordbeef6"></rect><path fill="#dbeef6" d="M19.49,44.995L19.49,44.995l-4.99,0V45.5c0,1.378,1.117,2.495,2.495,2.495c1.378,0,2.495-1.117,2.495-2.495    v-2.016c0,0,0,0,0-0.001V44.995z" class="colordbe7f6 svgShape colordbeef6"></path><path fill="#547f90" d="M10.489,25.495h-6c-0.276,0-0.5-0.224-0.5-0.5v-4.006c0-1.93,1.57-3.5,3.5-3.5s3.5,1.57,3.5,3.5v4.006    C10.989,25.271,10.766,25.495,10.489,25.495z M4.989,24.495h5v-3.506c0-1.378-1.121-2.5-2.5-2.5s-2.5,1.122-2.5,2.5V24.495z" class="color437abe svgShape color547f90"></path><path fill="#547f90" d="M19.489 45.495h-9c-.276 0-.5-.224-.5-.5V23.989c0-.276.224-.5.5-.5s.5.224.5.5v20.506h8.5c.276 0 .5.224.5.5S19.766 45.495 19.489 45.495zM30.489 33.505c-.276 0-.5-.224-.5-.5V20.989c0-1.378-1.121-2.5-2.5-2.5h-20c-.276 0-.5-.224-.5-.5s.224-.5.5-.5h20c1.93 0 3.5 1.57 3.5 3.5v12.016C30.989 33.281 30.766 33.505 30.489 33.505zM57.511 48.495h-23c-.276 0-.5-.224-.5-.5s.224-.5.5-.5h22.5v-31h-22v11.49c0 .276-.224.5-.5.5s-.5-.224-.5-.5v-11.99c0-.276.224-.5.5-.5h23c.276 0 .5.224.5.5v32C58.011 48.271 57.787 48.495 57.511 48.495z" class="color437abe svgShape color547f90"></path><path fill="#547f90" d="M50.511 48.495c-.276 0-.5-.224-.5-.5v-10c0-.167.084-.323.223-.416l2.777-1.852V15.995c0-.276.224-.5.5-.5s.5.224.5.5v20c0 .167-.084.323-.223.416l-2.777 1.852v9.732C51.011 48.271 50.787 48.495 50.511 48.495zM59.511 21.489h-2c-.276 0-.5-.224-.5-.5v-3c0-.276.224-.5.5-.5h2c.276 0 .5.224.5.5v3C60.011 21.266 59.787 21.489 59.511 21.489zM58.011 20.489h1v-2h-1V20.489zM59.511 26.489h-2c-.276 0-.5-.224-.5-.5v-3c0-.276.224-.5.5-.5h2c.276 0 .5.224.5.5v3C60.011 26.266 59.787 26.489 59.511 26.489zM58.011 25.489h1v-2h-1V25.489zM59.511 31.489h-2c-.276 0-.5-.224-.5-.5v-3c0-.276.224-.5.5-.5h2c.276 0 .5.224.5.5v3C60.011 31.266 59.787 31.489 59.511 31.489zM58.011 30.489h1v-2h-1V30.489zM16.989 48.485c-1.654 0-3-1.346-3-3v-.49h1v.49c0 1.103.897 2 2 2V48.485zM44.989 38.985h-1v-8.5c0-1.103-.897-2-2-2h-11.25v-1h11.25c1.654 0 3 1.346 3 3V38.985z" class="color437abe svgShape color547f90"></path><path fill="#547f90" d="M41.989,48.505h-25v-1c1.103,0,2-0.897,2-2v-10c0-1.654,1.346-3,3-3h20c1.654,0,3,1.346,3,3v10    C44.989,47.159,43.644,48.505,41.989,48.505z M19.224,47.505h22.766c1.103,0,2-0.897,2-2v-10c0-1.103-0.897-2-2-2h-20    c-1.103,0-2,0.897-2,2v10C19.989,46.272,19.699,46.974,19.224,47.505z" class="color437abe svgShape color547f90"></path><path fill="#547f90" d="M24.489 21.489h-8c-.276 0-.5-.224-.5-.5s.224-.5.5-.5h8c.276 0 .5.224.5.5S24.766 21.489 24.489 21.489zM27.489 24.489h-14c-.276 0-.5-.224-.5-.5s.224-.5.5-.5h14c.276 0 .5.224.5.5S27.766 24.489 27.489 24.489zM27.489 27.489h-14c-.276 0-.5-.224-.5-.5s.224-.5.5-.5h14c.276 0 .5.224.5.5S27.766 27.489 27.489 27.489zM27.489 30.489h-14c-.276 0-.5-.224-.5-.5s.224-.5.5-.5h14c.276 0 .5.224.5.5S27.766 30.489 27.489 30.489zM21.489 33.489h-8c-.276 0-.5-.224-.5-.5s.224-.5.5-.5h8c.276 0 .5.224.5.5S21.766 33.489 21.489 33.489zM19.489 36.489h-6c-.276 0-.5-.224-.5-.5s.224-.5.5-.5h6c.276 0 .5.224.5.5S19.766 36.489 19.489 36.489zM19.489 39.489h-6c-.276 0-.5-.224-.5-.5s.224-.5.5-.5h6c.276 0 .5.224.5.5S19.766 39.489 19.489 39.489zM19.489 42.489h-6c-.276 0-.5-.224-.5-.5s.224-.5.5-.5h6c.276 0 .5.224.5.5S19.766 42.489 19.489 42.489zM49.511 23.495h-8c-.276 0-.5-.224-.5-.5v-3c0-.276.224-.5.5-.5h8c.276 0 .5.224.5.5v3C50.011 23.271 49.787 23.495 49.511 23.495zM42.011 22.495h7v-2h-7V22.495z" class="color437abe svgShape color547f90"></path></svg></svg></g></svg>