<svg width="212.631201171875px" height="127.439990234375px" xmlns="http://www.w3.org/2000/svg" viewBox="143.6843994140625 11.280004882812499 212.631201171875 127.439990234375" style="background: rgb(0, 50, 98);" preserveAspectRatio="xMidYMid"><defs><filter id="editing-hole" x="-100%" y="-100%" width="300%" height="300%"><feFlood flood-color="#000000" result="black"></feFlood><feMorphology operator="dilate" radius="2" in="SourceGraphic" result="erode"></feMorphology><feGaussianBlur in="erode" stdDeviation="4" result="blur"></feGaussianBlur><feOffset in="blur" dx="2" dy="2" result="offset"></feOffset><feComposite operator="atop" in="offset" in2="black" result="merge"></feComposite><feComposite operator="in" in="merge" in2="SourceGraphic" result="inner-shadow"></feComposite></filter></defs><g filter="url(#editing-hole)"><g transform="translate(180.2415601015091, 99.95999908447266)"><path d="M23.87 0.64L22.40 0.64L5.70-43.90L5.70-43.90Q5.31-44.99 4.86-45.70L4.86-45.70L4.86-45.70Q4.42-46.40 3.71-46.85L3.71-46.85L3.71-46.85Q3.01-47.30 1.92-47.49L1.92-47.49L1.92-47.49Q0.83-47.68-0.83-47.81L-0.83-47.81L-0.83-49.28L19.97-49.28L19.97-47.81L19.97-47.81Q17.73-47.62 16.38-47.46L16.38-47.46L16.38-47.46Q15.04-47.30 14.34-47.10L14.34-47.10L14.34-47.10Q13.63-46.91 13.44-46.62L13.44-46.62L13.44-46.62Q13.25-46.34 13.25-45.89L13.25-45.89L13.25-45.89Q13.25-45.38 13.41-44.80L13.41-44.80L13.41-44.80Q13.57-44.22 14.08-42.88L14.08-42.88L24.90-11.71L25.22-11.71L33.02-36.86L30.40-43.90L30.40-43.90Q30.02-44.99 29.57-45.70L29.57-45.70L29.57-45.70Q29.12-46.40 28.42-46.85L28.42-46.85L28.42-46.85Q27.71-47.30 26.62-47.49L26.62-47.49L26.62-47.49Q25.54-47.68 23.87-47.81L23.87-47.81L23.87-49.28L44.67-49.28L44.67-47.81L44.67-47.81Q42.37-47.68 41.06-47.49L41.06-47.49L41.06-47.49Q39.74-47.30 39.07-47.07L39.07-47.07L39.07-47.07Q38.40-46.85 38.24-46.50L38.24-46.50L38.24-46.50Q38.08-46.14 38.08-45.70L38.08-45.70L38.08-45.70Q38.08-44.80 38.78-42.88L38.78-42.88L49.60-11.71L49.92-11.71L58.94-40.83L58.94-40.83Q59.52-42.62 59.52-43.90L59.52-43.90L59.52-43.90Q59.52-45.57 58.14-46.43L58.14-46.43L58.14-46.43Q56.77-47.30 53.06-47.81L53.06-47.81L53.06-49.28L71.04-49.28L71.04-47.81L71.04-47.81Q68.48-47.42 66.91-46.91L66.91-46.91L66.91-46.91Q65.34-46.40 64.38-45.60L64.38-45.60L64.38-45.60Q63.42-44.80 62.88-43.62L62.88-43.62L62.88-43.62Q62.34-42.43 61.76-40.70L61.76-40.70L48.58 0.64L47.10 0.64L34.56-32.83L23.87 0.64ZM93.63 0.64L92.16 0.64L75.46-43.90L75.46-43.90Q75.07-44.99 74.62-45.70L74.62-45.70L74.62-45.70Q74.18-46.40 73.47-46.85L73.47-46.85L73.47-46.85Q72.77-47.30 71.68-47.49L71.68-47.49L71.68-47.49Q70.59-47.68 68.93-47.81L68.93-47.81L68.93-49.28L89.73-49.28L89.73-47.81L89.73-47.81Q87.49-47.62 86.14-47.46L86.14-47.46L86.14-47.46Q84.80-47.30 84.10-47.10L84.10-47.10L84.10-47.10Q83.39-46.91 83.20-46.62L83.20-46.62L83.20-46.62Q83.01-46.34 83.01-45.89L83.01-45.89L83.01-45.89Q83.01-45.38 83.17-44.80L83.17-44.80L83.17-44.80Q83.33-44.22 83.84-42.88L83.84-42.88L94.66-11.71L94.98-11.71L102.78-36.86L100.16-43.90L100.16-43.90Q99.78-44.99 99.33-45.70L99.33-45.70L99.33-45.70Q98.88-46.40 98.18-46.85L98.18-46.85L98.18-46.85Q97.47-47.30 96.38-47.49L96.38-47.49L96.38-47.49Q95.30-47.68 93.63-47.81L93.63-47.81L93.63-49.28L114.43-49.28L114.43-47.81L114.43-47.81Q112.13-47.68 110.82-47.49L110.82-47.49L110.82-47.49Q109.50-47.30 108.83-47.07L108.83-47.07L108.83-47.07Q108.16-46.85 108-46.50L108-46.50L108-46.50Q107.84-46.14 107.84-45.70L107.84-45.70L107.84-45.70Q107.84-44.80 108.54-42.88L108.54-42.88L119.36-11.71L119.68-11.71L128.70-40.83L128.70-40.83Q129.28-42.62 129.28-43.90L129.28-43.90L129.28-43.90Q129.28-45.57 127.90-46.43L127.90-46.43L127.90-46.43Q126.53-47.30 122.82-47.81L122.82-47.81L122.82-49.28L140.80-49.28L140.80-47.81L140.80-47.81Q138.24-47.42 136.67-46.91L136.67-46.91L136.67-46.91Q135.10-46.40 134.14-45.60L134.14-45.60L134.14-45.60Q133.18-44.80 132.64-43.62L132.64-43.62L132.64-43.62Q132.10-42.43 131.52-40.70L131.52-40.70L118.34 0.64L116.86 0.64L104.32-32.83L93.63 0.64Z" fill="#fdb515"></path></g></g><style>text {
  font-size: 64px;
  font-family: Arial Black;
  dominant-baseline: central;
  text-anchor: middle;
}</style></svg>